<?xml version="1.0" encoding="utf-8"?>
<!-- Generator: Adobe Illustrator 28.1.0, SVG Export Plug-In . SVG Version: 6.00 Build 0)  -->
<svg version="1.1" id="Layer_1" xmlns="http://www.w3.org/2000/svg" xmlns:xlink="http://www.w3.org/1999/xlink" x="0px" y="0px"
	 viewBox="0 0 50.1 24.9" style="enable-background:new 0 0 50.1 24.9;" xml:space="preserve">
<style type="text/css">
	.st0{fill:#F36F21;}
	.st1{fill:#0066B3;}
	.st2{fill:#0DB14B;}
	.st3{fill:#FFFFFF;}
</style>
<g>
	<path class="st0" d="M21.6,0h6.9l-4.8,20.8c-0.5,2.4-2.7,4.1-5.1,4.1h-6.9l4.8-20.8C17,1.7,19.2,0,21.6,0"/>
	<path class="st1" d="M0,21.1h6.9c2.5,0,4.6-1.7,5.1-4.1l3-13.2H8.2C5.7,3.8,3.6,5.5,3,7.9L0,21.1z"/>
	<path class="st2" d="M25.1,21.1h6.9c2.5,0,4.6-1.7,5.1-4.1l3-13.2h-6.9c-2.5,0-4.6,1.7-5.1,4.1C28.2,7.9,25.1,21.1,25.1,21.1z"/>
	<path class="st3" d="M4.4,10l-1.6,6.7c1.1,0,2.1-0.8,2.3-1.9l0.3-1.5h3.1c1.1,0,2.1-0.8,2.4-1.9H6l0.3-1.4h4.2
		c1.1,0,2.1-0.8,2.4-1.9H6.8C5.6,8.1,4.6,8.9,4.4,10"/>
	<path class="st3" d="M24.9,9.9c0.2-0.9-0.5-1.8-1.4-1.8h-6.2l-2,8.6c1.1,0,2.1-0.8,2.4-1.9l0.3-1.5h4.2c1.1,0,2.1-0.8,2.3-1.8
		L24.9,9.9L24.9,9.9z M22.6,11.5h-4.1l0.3-1.4h4.1C22.9,10.1,22.6,11.5,22.6,11.5z"/>
	<path class="st3" d="M36,8.1h-6.5l0,0.2c-0.2,0.9,0.5,1.8,1.4,1.8h1.4l-1.5,6.7h0.1c1.1,0,2-0.7,2.3-1.8l1.1-4.9h3.2l0-0.2
		C37.6,9,36.9,8.1,36,8.1"/>
</g>
<g>
	<path class="st1" d="M39.8,18.2c-0.8,0-1.4,0.6-1.4,1.4c0,0.8,0.6,1.4,1.4,1.4c0.8,0,1.4-0.6,1.4-1.4
		C41.2,18.8,40.5,18.2,39.8,18.2 M39.8,20.7c-0.6,0-1.1-0.5-1.1-1.1s0.5-1.1,1.1-1.1c0.6,0,1.1,0.5,1.1,1.1S40.4,20.7,39.8,20.7"/>
	<path class="st1" d="M39.8,19.8h-0.2v0.5h-0.3v-1.4h0.5c0.2,0,0.3,0,0.4,0.1c0.1,0.1,0.1,0.2,0.1,0.3c0,0.1,0,0.2-0.1,0.2
		c0,0.1-0.1,0.1-0.2,0.2l0.3,0.6v0h-0.3C40.1,20.4,39.8,19.8,39.8,19.8z M39.6,19.6h0.2c0.1,0,0.1,0,0.2-0.1c0,0,0.1-0.1,0.1-0.2
		c0-0.1,0-0.1-0.1-0.2c0,0-0.1-0.1-0.2-0.1h-0.2V19.6z"/>
</g>
<g>
	<path class="st1" d="M44.7,16.7v-6.5h1v6.5H44.7z"/>
	<path class="st1" d="M49.5,16.3c-0.4,0.3-0.9,0.5-1.6,0.5c-0.7,0-1.2-0.1-1.6-0.3l0.3-0.9c0.4,0.2,0.8,0.3,1.2,0.3
		c0.4,0,0.7-0.1,0.9-0.3c0.2-0.2,0.3-0.4,0.3-0.7c0-0.4-0.3-0.8-1-1.1c-0.5-0.2-0.9-0.5-1.1-0.7c-0.4-0.3-0.5-0.7-0.5-1.2
		c0-0.6,0.2-1,0.6-1.3c0.4-0.3,0.9-0.5,1.5-0.5s1.1,0.1,1.5,0.3l-0.3,0.8c-0.4-0.2-0.7-0.3-1.1-0.3c-0.3,0-0.6,0.1-0.8,0.2
		c-0.2,0.2-0.3,0.4-0.3,0.7c0,0.4,0.4,0.8,1.1,1.1c0.5,0.2,0.9,0.5,1.1,0.7c0.4,0.3,0.5,0.7,0.5,1.2C50.1,15.5,49.9,15.9,49.5,16.3
		L49.5,16.3z"/>
</g>
</svg>
