<?xml version="1.0" encoding="UTF-8"?>
<svg id="Layer_1" data-name="Layer 1" xmlns="http://www.w3.org/2000/svg" viewBox="0 0 183 128"><defs><style>.cls-1{fill:#0b67b1;}.cls-2{fill:#f27023;}.cls-3{fill:#0db04b;}.cls-4{fill:#fff;}</style></defs><path class="cls-1" d="M45.88,33A18.73,18.73,0,0,0,28.1,45.85c-.06.17-.11.34-.16.51L27.53,48,17.13,93H43.32a18.13,18.13,0,0,0,17-11.91l1-4.29L71.45,33Z"/><path class="cls-2" d="M95.29,18a18.71,18.71,0,0,0-18,13.61,17.28,17.28,0,0,0-.42,1.79L59.64,108H85.2a18.73,18.73,0,0,0,18.16-14.15h0L120.88,18Z"/><path class="cls-3" d="M137.81,33a18.72,18.72,0,0,0-17.5,12.08c-.14.36-.62,1.85-.62,1.85L109.06,93h25.57a18.74,18.74,0,0,0,18.18-14.22h0L163.37,33Z"/><path class="cls-1" d="M155.94,87.32a5.55,5.55,0,1,1,5.54,5.55,5.55,5.55,0,0,1-5.54-5.55m9.74,0a4.2,4.2,0,1,0-4.2,4.47,4.26,4.26,0,0,0,4.2-4.47m-6.33-3.16h2.33c1.51,0,2.33.52,2.33,1.84a1.57,1.57,0,0,1-1.65,1.69l1.69,2.75h-1.2l-1.62-2.71h-.71v2.71h-1.17Zm1.17,2.69h1c.68,0,1.29-.1,1.29-.94s-.68-.86-1.28-.86h-1Z"/><path class="cls-4" d="M152.18,49.28a4.85,4.85,0,0,0-3.59-1.4H125.43l0,.2a6.78,6.78,0,0,0-.16,1.28,4.73,4.73,0,0,0,1.35,3.53,4.83,4.83,0,0,0,3.59,1.41h5l-5.43,23.55h.31a7.42,7.42,0,0,0,4.73-1.78,7.6,7.6,0,0,0,2.75-4.3l4-17.47h11.77l0-.21a6.43,6.43,0,0,0,.16-1.31A4.71,4.71,0,0,0,152.18,49.28Z"/><path class="cls-4" d="M102.24,47.84H86.8v0H80.38l-6.91,30h.31a7.38,7.38,0,0,0,4.73-1.79,7.61,7.61,0,0,0,2.75-4.3l1.41-6.17H98.26A7.46,7.46,0,0,0,103,63.82a7.84,7.84,0,0,0,2.8-4.34l1.28-5.43a7.11,7.11,0,0,0,.15-1.32,4.62,4.62,0,0,0-1.36-3.49A4.91,4.91,0,0,0,102.24,47.84ZM85.31,54.25h15.5l-1.16,4.92H84.14Z"/><path class="cls-4" d="M34.86,49.62a7.67,7.67,0,0,0-2.68,3.81L26.56,77.85h.31a7.37,7.37,0,0,0,4.72-1.78,7.68,7.68,0,0,0,2.76-4.3l1.44-6.21,10.78,0a7.56,7.56,0,0,0,4.77-1.81,7.65,7.65,0,0,0,2.78-4.33l.07-.31H37.28l1.13-4.89,16,0a7.42,7.42,0,0,0,4.72-1.77,7.92,7.92,0,0,0,2.76-4.33l.08-.31-22.37,0A7.33,7.33,0,0,0,34.86,49.62Z"/></svg>