<?xml version="1.0" encoding="UTF-8"?>
<svg xmlns="http://www.w3.org/2000/svg" xmlns:xlink="http://www.w3.org/1999/xlink" width="152.301" height="32" viewBox="0 0 152.301 32">
  <defs>
    <clipPath id="clip-path">
      <rect id="Rectangle_200" data-name="Rectangle 200" width="152.301" height="32" fill="none"/>
    </clipPath>
  </defs>
  <g id="Group_619" data-name="Group 619" transform="translate(0 0)">
    <g id="Group_701" data-name="Group 701" transform="translate(0 0)" clip-path="url(#clip-path)">
      <path id="Path_199" data-name="Path 199" d="M56.3,34.493a1.881,1.881,0,0,1-1.37-.484,2.252,2.252,0,0,1-.514-1.705V29.019h-.907a.073.073,0,0,1-.073-.073v-.857a.073.073,0,0,1,.073-.072h.907v-1.1a.073.073,0,0,1,.052-.07l1.3-.373a.057.057,0,0,1,.02,0,.077.077,0,0,1,.044.015.074.074,0,0,1,.028.058v1.471h1.573a.072.072,0,0,1,.072.072v.857a.072.072,0,0,1-.072.073H55.86v3.215c0,.805.272,1.164.88,1.164a2.281,2.281,0,0,0,.556-.06l.017,0a.077.077,0,0,1,.044.015.073.073,0,0,1,.028.055l.043.883a.072.072,0,0,1-.05.072,3.711,3.711,0,0,1-1.078.132" transform="translate(-12.421 -6.154)" fill="#5a5b5e"/>
      <path id="Path_200" data-name="Path 200" d="M62.563,34.918A3.019,3.019,0,0,1,59.272,31.7a3.092,3.092,0,0,1,3.115-3.4c2.01,0,2.726,1.577,2.726,3.053a3.884,3.884,0,0,1-.028.5.072.072,0,0,1-.072.063H60.679a1.9,1.9,0,0,0,2.1,1.971,4.7,4.7,0,0,0,1.671-.272.066.066,0,0,1,.025,0,.067.067,0,0,1,.034.008.068.068,0,0,1,.036.046l.2.806a.073.073,0,0,1-.044.084,6.033,6.033,0,0,1-2.14.356m1.169-3.953a1.848,1.848,0,0,0-.452-1.326,1.334,1.334,0,0,0-.993-.379,1.7,1.7,0,0,0-1.595,1.706Z" transform="translate(-13.778 -6.579)" fill="#5a5b5e"/>
      <path id="Path_201" data-name="Path 201" d="M71.2,34.919a3.066,3.066,0,0,1-3.3-3.238A3.3,3.3,0,0,1,71.481,28.3a4.146,4.146,0,0,1,1.486.262.073.073,0,0,1,.042.087l-.249.885a.07.07,0,0,1-.038.045.076.076,0,0,1-.06,0,2.949,2.949,0,0,0-1.168-.22,2.072,2.072,0,0,0-2.111,2.259,2.049,2.049,0,0,0,2.1,2.224,3.385,3.385,0,0,0,1.227-.223.074.074,0,0,1,.025,0,.071.071,0,0,1,.035.009.07.07,0,0,1,.036.049l.173.86a.073.073,0,0,1-.045.081,4.883,4.883,0,0,1-1.728.3" transform="translate(-15.783 -6.58)" fill="#5a5b5e"/>
      <path id="Path_202" data-name="Path 202" d="M80.109,33.957a.072.072,0,0,1-.072-.072V30.246c0-1.078-.469-1.671-1.319-1.671a1.475,1.475,0,0,0-1.482,1.5v3.812a.072.072,0,0,1-.073.072H75.85a.072.072,0,0,1-.072-.072v-9.1a.073.073,0,0,1,.072-.073h1.313a.073.073,0,0,1,.073.073v3.684h.038l.006-.019a2.393,2.393,0,0,1,1.965-.983c1.088,0,2.249.7,2.249,2.65v3.766a.072.072,0,0,1-.072.072Z" transform="translate(-17.614 -5.745)" fill="#5a5b5e"/>
      <path id="Path_203" data-name="Path 203" d="M89.511,34.791a.072.072,0,0,1-.072-.072v-3.65c0-1.07-.469-1.659-1.319-1.659a1.487,1.487,0,0,0-1.482,1.556v3.754a.072.072,0,0,1-.073.072H85.252a.072.072,0,0,1-.072-.072V30.227c0-.65-.021-1.159-.047-1.71a.071.071,0,0,1,.02-.053.073.073,0,0,1,.053-.023h1.125a.073.073,0,0,1,.073.067l.07.878h.041l.021-.025A2.375,2.375,0,0,1,88.61,28.3c.536,0,2.286.187,2.286,2.6v3.812a.072.072,0,0,1-.072.072Z" transform="translate(-19.789 -6.579)" fill="#5a5b5e"/>
      <path id="Path_204" data-name="Path 204" d="M97.259,34.918a3.043,3.043,0,0,1-3.166-3.261A3.134,3.134,0,0,1,97.36,28.3a3.032,3.032,0,0,1,3.141,3.261,3.124,3.124,0,0,1-3.241,3.353m.05-5.612c-1.27,0-1.721,1.248-1.721,2.316,0,1.35.7,2.293,1.709,2.293.989,0,1.709-.974,1.709-2.316,0-1.141-.525-2.293-1.7-2.293" transform="translate(-21.872 -6.579)" fill="#5a5b5e"/>
      <path id="Rectangle_199" data-name="Rectangle 199" d="M.094,0H1.363a.1.1,0,0,1,.1.1V9.148a.095.095,0,0,1-.095.095H.094A.094.094,0,0,1,0,9.149V.094A.094.094,0,0,1,.094,0Z" transform="translate(79.824 18.969)" fill="#5a5b5e"/>
      <path id="Path_205" data-name="Path 205" d="M110.587,34.918a3.043,3.043,0,0,1-3.166-3.261,3.134,3.134,0,0,1,3.267-3.353,3.032,3.032,0,0,1,3.141,3.261,3.124,3.124,0,0,1-3.241,3.353m.05-5.612c-1.27,0-1.721,1.248-1.721,2.316,0,1.35.7,2.293,1.709,2.293.989,0,1.709-.974,1.709-2.316,0-1.141-.525-2.293-1.7-2.293" transform="translate(-24.97 -6.579)" fill="#5a5b5e"/>
      <path id="Path_206" data-name="Path 206" d="M119.561,37.5a5,5,0,0,1-2.132-.432.073.073,0,0,1-.035-.086l.282-.9a.075.075,0,0,1,.041-.045.068.068,0,0,1,.028-.005.072.072,0,0,1,.033.008,4.071,4.071,0,0,0,1.8.41,1.783,1.783,0,0,0,1.934-2.017v-.61h-.039l0,.019a2.222,2.222,0,0,1-1.9.914,2.844,2.844,0,0,1-2.751-3.1,3.049,3.049,0,0,1,2.927-3.354,2.02,2.02,0,0,1,1.9.992h.021l.011-.025.052-.761a.072.072,0,0,1,.072-.067h1.147a.073.073,0,0,1,.053.023.072.072,0,0,1,.019.055c-.04.505-.057,1.03-.057,1.754v3.618c0,1.08,0,3.607-3.392,3.607m.44-8.136c-1.022,0-1.709.9-1.709,2.236,0,1.295.666,2.131,1.7,2.131a1.483,1.483,0,0,0,1.507-1.59V30.9a1.481,1.481,0,0,0-1.5-1.533" transform="translate(-27.152 -6.579)" fill="#5a5b5e"/>
      <path id="Path_207" data-name="Path 207" d="M126.758,37.691a.073.073,0,0,1-.069-.049l-.333-1a.073.073,0,0,1,.045-.091,3.034,3.034,0,0,0,1.979-1.936.579.579,0,0,0-.075-.276l-2.334-5.755a.071.071,0,0,1,.007-.068.073.073,0,0,1,.061-.031h1.436a.072.072,0,0,1,.068.048l1.24,3.524c.111.333.238.759.377,1.268h.025l.03-.031c.083-.338.221-.811.347-1.237l1.1-3.522a.072.072,0,0,1,.069-.051h1.375a.071.071,0,0,1,.059.031.073.073,0,0,1,.008.068l-1.634,4.3c-.787,2.01-1.375,3.244-2.224,4a3.839,3.839,0,0,1-1.543.8l-.017,0" transform="translate(-29.281 -6.621)" fill="#5a5b5e"/>
      <path id="Path_208" data-name="Path 208" d="M140.569,34.083a.073.073,0,0,1-.069-.05l-2.867-8.683a.075.075,0,0,1,.01-.065.072.072,0,0,1,.059-.03h1.441a.073.073,0,0,1,.07.051l1.253,4.1c.407,1.294.695,2.33.9,3.261h.025l.029-.033a28.289,28.289,0,0,1,.913-3.217l1.34-4.1a.073.073,0,0,1,.069-.05h1.4a.073.073,0,0,1,.059.03.074.074,0,0,1,.009.067l-3.065,8.671a.073.073,0,0,1-.068.048Z" transform="translate(-31.992 -5.871)" fill="#5a5b5e"/>
      <path id="Path_209" data-name="Path 209" d="M148.6,34.065a.072.072,0,0,1-.073-.072V27.777a.072.072,0,0,1,.073-.072h1.313a.072.072,0,0,1,.072.072v6.216a.072.072,0,0,1-.072.072Zm.656-7.329a.783.783,0,0,1-.842-.772.794.794,0,0,1,.854-.784.781.781,0,1,1-.012,1.556" transform="translate(-34.498 -5.853)" fill="#5a5b5e"/>
      <path id="Path_210" data-name="Path 210" d="M155.235,34.918a3.019,3.019,0,0,1-3.291-3.215,3.093,3.093,0,0,1,3.116-3.4c2.009,0,2.726,1.577,2.726,3.053a3.891,3.891,0,0,1-.028.5.072.072,0,0,1-.072.063h-4.334a1.9,1.9,0,0,0,2.1,1.971,4.7,4.7,0,0,0,1.671-.272.066.066,0,0,1,.025,0,.067.067,0,0,1,.034.008.072.072,0,0,1,.037.046l.2.806a.073.073,0,0,1-.044.084,6.033,6.033,0,0,1-2.14.356m1.169-3.953a1.844,1.844,0,0,0-.451-1.326,1.337,1.337,0,0,0-.994-.379,1.7,1.7,0,0,0-1.595,1.706Z" transform="translate(-35.319 -6.579)" fill="#5a5b5e"/>
      <path id="Path_211" data-name="Path 211" d="M163.017,34.493a1.878,1.878,0,0,1-1.37-.484,2.252,2.252,0,0,1-.514-1.705V29.019h-.907a.073.073,0,0,1-.073-.073v-.857a.073.073,0,0,1,.073-.072h.907v-1.1a.073.073,0,0,1,.052-.07l1.3-.373a.057.057,0,0,1,.02,0,.073.073,0,0,1,.072.073v1.471h1.573a.072.072,0,0,1,.072.072v.857a.072.072,0,0,1-.072.073h-1.573v3.215c0,.805.272,1.164.88,1.164a2.3,2.3,0,0,0,.556-.06l.016,0a.077.077,0,0,1,.044.015.073.073,0,0,1,.028.055l.043.883a.071.071,0,0,1-.05.072,3.711,3.711,0,0,1-1.078.132" transform="translate(-37.227 -6.154)" fill="#5a5b5e"/>
      <path id="Path_212" data-name="Path 212" d="M170.988,34.791a.072.072,0,0,1-.072-.072v-3.65c0-1.07-.469-1.659-1.319-1.659a1.487,1.487,0,0,0-1.482,1.556v3.754a.072.072,0,0,1-.073.072h-1.313a.072.072,0,0,1-.072-.072V30.227c0-.65-.021-1.159-.047-1.71a.073.073,0,0,1,.073-.076h1.125a.073.073,0,0,1,.073.067l.07.878h.041l.021-.025a2.374,2.374,0,0,1,2.074-1.058c.536,0,2.286.187,2.286,2.6v3.812a.072.072,0,0,1-.072.072Z" transform="translate(-38.728 -6.579)" fill="#5a5b5e"/>
      <path id="Path_213" data-name="Path 213" d="M177.485,34.918a1.863,1.863,0,0,1-2.035-1.855c0-1.524,1.374-2.363,3.869-2.363,0-.5,0-1.418-1.395-1.418a3.476,3.476,0,0,0-1.608.394.071.071,0,0,1-.035.009.074.074,0,0,1-.025,0,.073.073,0,0,1-.043-.045l-.253-.747a.072.072,0,0,1,.033-.087,4.7,4.7,0,0,1,2.184-.5,2.3,2.3,0,0,1,2.6,2.581v2.4a8.575,8.575,0,0,0,.084,1.424.074.074,0,0,1-.016.06.072.072,0,0,1-.055.026h-1.168a.072.072,0,0,1-.071-.063l-.092-.675h-.035l-.028.021a2.376,2.376,0,0,1-1.909.844m1.872-3.319c-1.657,0-2.462.434-2.462,1.325a.952.952,0,0,0,1.018,1.014,1.359,1.359,0,0,0,1.445-1.29Z" transform="translate(-40.783 -6.579)" fill="#5a5b5e"/>
      <path id="Path_214" data-name="Path 214" d="M192.475,34.791a.072.072,0,0,1-.072-.072V31.161c0-1.137-.447-1.763-1.256-1.763a1.4,1.4,0,0,0-1.344,1.475v3.846a.073.073,0,0,1-.073.072h-1.287a.072.072,0,0,1-.072-.072V30.965c0-.981-.451-1.567-1.207-1.567a1.457,1.457,0,0,0-1.395,1.544v3.777a.072.072,0,0,1-.072.072H184.41a.072.072,0,0,1-.073-.072V30.227c0-.661-.02-1.146-.046-1.71a.068.068,0,0,1,.02-.053.07.07,0,0,1,.052-.023h1.114a.073.073,0,0,1,.072.067l.07.867h.039l.023-.024a2.24,2.24,0,0,1,2-1.048,1.89,1.89,0,0,1,1.834,1.164h.038l.006-.02a2.406,2.406,0,0,1,2.116-1.144c.507,0,2.161.191,2.161,2.65v3.766a.072.072,0,0,1-.072.072Z" transform="translate(-42.838 -6.579)" fill="#5a5b5e"/>
      <path id="Path_215" data-name="Path 215" d="M118.069,8.175a4.934,4.934,0,0,1,2.312.521.1.1,0,0,0,.08,0,.087.087,0,0,0,.052-.058l.461-1.547a.09.09,0,0,0-.045-.107,6.4,6.4,0,0,0-2.859-.613,5.816,5.816,0,0,0-6.1,6.053,5.435,5.435,0,0,0,5.661,5.822,7.982,7.982,0,0,0,3.25-.657.091.091,0,0,0,.051-.1l-.348-1.527a.092.092,0,0,0-.047-.06.078.078,0,0,0-.078,0,5.794,5.794,0,0,1-2.458.523c-2.266,0-3.789-1.641-3.789-4.088,0-2.072,1.192-4.16,3.858-4.16" transform="translate(-26.027 -1.482)" fill="#1a1818"/>
      <path id="Path_216" data-name="Path 216" d="M144.164,11.323c-1.412-.538-2.044-.928-2.044-1.831,0-.714.546-1.431,1.758-1.431a4.438,4.438,0,0,1,2.24.635.093.093,0,0,0,.078.007.09.09,0,0,0,.055-.058l.487-1.456a.1.1,0,0,0-.039-.107,5.31,5.31,0,0,0-2.775-.706c-2.287,0-3.951,1.418-3.951,3.374,0,1.423,1.022,2.516,3.041,3.251,1.473.552,2,1.066,2,1.97,0,.982-.768,1.571-2.054,1.571a5.694,5.694,0,0,1-2.655-.773.1.1,0,0,0-.081-.008.1.1,0,0,0-.057.058l-.481,1.526a.091.091,0,0,0,.037.109,6.5,6.5,0,0,0,3.191.8c2.581,0,4.253-1.36,4.253-3.465,0-1.619-.928-2.686-3-3.46" transform="translate(-32.467 -1.482)" fill="#1a1818"/>
      <path id="Path_217" data-name="Path 217" d="M163.445,6.375a3.852,3.852,0,0,0-2.505.8,4.5,4.5,0,0,0-1.227,1.383,3.372,3.372,0,0,0-3.174-2.188,3.951,3.951,0,0,0-3.523,1.96c-.012-.294-.082-1.618-.082-1.618a.1.1,0,0,0-.092-.088h-1.779a.1.1,0,0,0-.068.028.1.1,0,0,0-.024.069l0,.064c.044.89.088,1.809.088,2.958V17.9a.091.091,0,0,0,.094.091h1.986a.094.094,0,0,0,.1-.091V11.158a2.72,2.72,0,0,1,.154-.963,2.705,2.705,0,0,1,2.431-1.973c1.4,0,2.243,1.114,2.243,2.98v6.7a.089.089,0,0,0,.088.091h1.99a.09.09,0,0,0,.091-.091V10.971a3.55,3.55,0,0,1,.155-.988,2.6,2.6,0,0,1,2.341-1.761c1.927,0,2.33,1.823,2.33,3.353V17.9a.094.094,0,0,0,.1.091h1.986a.091.091,0,0,0,.091-.091V11.319c0-3.644-1.957-4.944-3.788-4.944" transform="translate(-35.093 -1.482)" fill="#1a1818"/>
      <path id="Path_218" data-name="Path 218" d="M193.164,11.323c-1.416-.538-2.042-.928-2.042-1.831,0-.714.543-1.431,1.752-1.431a4.411,4.411,0,0,1,2.24.635.1.1,0,0,0,.082.007.108.108,0,0,0,.055-.058l.487-1.453a.1.1,0,0,0-.039-.111,5.339,5.339,0,0,0-2.776-.706c-2.29,0-3.948,1.418-3.948,3.374,0,1.423,1.02,2.518,3.039,3.251,1.472.552,1.994,1.068,1.994,1.97,0,.982-.77,1.571-2.055,1.571a5.708,5.708,0,0,1-2.656-.773.094.094,0,0,0-.081-.008.09.09,0,0,0-.051.058l-.487,1.526a.1.1,0,0,0,.043.109,6.469,6.469,0,0,0,3.187.8c2.583,0,4.251-1.36,4.251-3.465,0-1.619-.926-2.684-2.994-3.46" transform="translate(-43.857 -1.482)" fill="#1a1818"/>
      <path id="Path_219" data-name="Path 219" d="M130,6.375c-3.318,0-5.632,2.48-5.632,6.029,0,3.443,2.238,5.846,5.444,5.846h.026c2.713,0,5.632-1.894,5.632-6.054,0-3.48-2.2-5.82-5.47-5.82m-.118,10.166h-.025c-1.881,0-3.251-1.768-3.251-4.205,0-2.115,1.029-4.251,3.324-4.251,2.236,0,3.255,2.167,3.255,4.181,0,2.475-1.391,4.275-3.3,4.275" transform="translate(-28.909 -1.482)" fill="#1a1818"/>
      <path id="Path_220" data-name="Path 220" d="M179.25,6.375c-3.317,0-5.638,2.48-5.638,6.029,0,3.443,2.244,5.846,5.457,5.846h.016c2.716,0,5.64-1.894,5.64-6.054,0-3.48-2.2-5.82-5.476-5.82m-.115,10.166h-.022c-1.886,0-3.257-1.768-3.257-4.205,0-2.115,1.027-4.251,3.326-4.251,2.239,0,3.258,2.167,3.258,4.181,0,2.475-1.392,4.275-3.3,4.275" transform="translate(-40.356 -1.482)" fill="#1a1818"/>
      <path id="Path_221" data-name="Path 221" d="M60.094,5.894H57.276V3.306a.089.089,0,0,0-.121-.087l-1.986.623a.1.1,0,0,0-.065.089V5.894H53.465a.094.094,0,0,0-.092.094V7.535a.093.093,0,0,0,.092.093H55.1v6.008a4.428,4.428,0,0,0,.811,2.994,3,3,0,0,0,2.264.886,5.566,5.566,0,0,0,1.834-.283.091.091,0,0,0,.059-.092l-.091-1.547a.09.09,0,0,0-.043-.071.08.08,0,0,0-.077-.011,3.828,3.828,0,0,1-1.151.134c-1,0-1.435-.622-1.435-2.08V7.628h2.818a.092.092,0,0,0,.093-.093V5.988a.093.093,0,0,0-.093-.094" transform="translate(-12.406 -0.748)" fill="#1a1818"/>
      <path id="Path_222" data-name="Path 222" d="M90.961,6.375A4.208,4.208,0,0,0,87.3,8.325c-.021-.341-.1-1.61-.1-1.61a.093.093,0,0,0-.091-.086H85.3a.1.1,0,0,0-.07.029.087.087,0,0,0-.023.071c.064.887.093,1.788.093,3.02V17.9a.091.091,0,0,0,.092.091h2.03a.093.093,0,0,0,.094-.091V11.158a2.9,2.9,0,0,1,.133-.916,2.834,2.834,0,0,1,2.639-2.019c2.17,0,2.5,2.027,2.5,3.234V17.9a.089.089,0,0,0,.09.091h2.036A.089.089,0,0,0,95,17.9V11.227c0-4.618-3.365-4.852-4.04-4.852" transform="translate(-19.807 -1.482)" fill="#1a1818"/>
      <path id="Path_223" data-name="Path 223" d="M103.934,11.323c-1.412-.538-2.04-.928-2.04-1.831,0-.714.544-1.431,1.756-1.431a4.41,4.41,0,0,1,2.237.635.093.093,0,0,0,.078.007.1.1,0,0,0,.055-.058l.487-1.453a.094.094,0,0,0-.035-.111,5.33,5.33,0,0,0-2.774-.706c-2.293,0-3.951,1.418-3.951,3.374,0,1.423,1.022,2.516,3.04,3.251,1.471.552,2,1.068,2,1.97,0,.982-.768,1.571-2.054,1.571a5.728,5.728,0,0,1-2.66-.773.09.09,0,0,0-.08-.008.1.1,0,0,0-.055.058l-.484,1.526a.1.1,0,0,0,.041.109,6.472,6.472,0,0,0,3.191.8c2.579,0,4.246-1.36,4.246-3.465,0-1.619-.923-2.684-2.993-3.46" transform="translate(-23.116 -1.482)" fill="#1a1818"/>
      <path id="Path_224" data-name="Path 224" d="M80.478,11.041c0-2.128-.757-4.666-4.366-4.666a7.353,7.353,0,0,0-3.743.983.092.092,0,0,0-.041.108l.461,1.362a.109.109,0,0,0,.061.059.107.107,0,0,0,.08-.011,5.327,5.327,0,0,1,2.884-.816,2.432,2.432,0,0,1,1.808.6,2.564,2.564,0,0,1,.639,1.9v.137c-2.63,0-4.6.573-5.692,1.662a3.522,3.522,0,0,0-1.029,2.591,3.264,3.264,0,0,0,3.512,3.3,4.237,4.237,0,0,0,3.417-1.6c.029.23.163,1.265.163,1.265a.094.094,0,0,0,.094.081h1.822a.093.093,0,0,0,.094-.106,18.658,18.658,0,0,1-.163-2.663Zm-4.921,5.523a1.7,1.7,0,0,1-1.8-1.851,1.934,1.934,0,0,1,.573-1.437c.7-.685,2.038-1.018,3.978-.989v1.851a1.933,1.933,0,0,1-.089.618,2.729,2.729,0,0,1-2.662,1.808" transform="translate(-16.629 -1.482)" fill="#1a1818"/>
      <path id="Path_225" data-name="Path 225" d="M70.139,6.344a2.206,2.206,0,0,0-.576-.072,3.393,3.393,0,0,0-2.984,1.973.082.082,0,0,0-.012.049V8.82l.006,2.081a.084.084,0,0,0,.087.08.1.1,0,0,0,.1-.084v0A2.77,2.77,0,0,1,69.4,8.378l.659.04.049,0A.078.078,0,0,0,70.18,8.4a.086.086,0,0,0,.031-.069v-1.9a.09.09,0,0,0-.072-.089" transform="translate(-15.473 -1.458)" fill="#c4082a"/>
      <path id="Path_226" data-name="Path 226" d="M66.163,8.894V8.372c0-.013-.092-1.682-.092-1.682a.093.093,0,0,0-.094-.085H64.121a.1.1,0,0,0-.068.028.088.088,0,0,0-.024.069c.08,1.209.117,2.318.117,3.49v7.715a.094.094,0,0,0,.093.092h1.84a.087.087,0,0,0,.068-.028.089.089,0,0,0,.026-.064l0-6.931Z" transform="translate(-14.883 -1.535)" fill="#1a1818"/>
      <path id="Path_227" data-name="Path 227" d="M18.427,12.456S-14.8,17.374,7.98,25.834c0,0-11.658-6.843,10.447-13.378" transform="translate(0 -2.896)" fill="#c4082a"/>
      <path id="Path_228" data-name="Path 228" d="M35.7,39.723s15.764-2.1,5.262-6.5c0,0,6.009,3.36-5.262,6.5" transform="translate(-8.299 -7.723)" fill="#c4082a"/>
      <path id="Path_229" data-name="Path 229" d="M32.119,1.779a14.131,14.131,0,0,1,5.533,2.785l.92-.22A14.87,14.87,0,0,0,31.681.892Z" transform="translate(-7.364 -0.208)" fill="#5a5b5e"/>
      <path id="Path_230" data-name="Path 230" d="M11.058,8.523h4.748a15.482,15.482,0,0,0-.56,1.706c.288-.064.569-.124.84-.182a15.673,15.673,0,0,1,.539-1.524h5.047L23.785,7.48V1.712A11.884,11.884,0,0,1,25.73,2.876L25.466,1.77c-.275-.175-.53-.325-.757-.446.225.02.447.051.669.081l-.19-.794A15.175,15.175,0,0,0,23.406.5,14.925,14.925,0,0,0,8.918,11.924c.278-.092.564-.184.856-.276a14.136,14.136,0,0,1,1.284-3.125m11.969-.761h-6.06a13.072,13.072,0,0,1,2.461-3.493,12.062,12.062,0,0,1,3.6-2.521Zm-.875-6.442A13.138,13.138,0,0,0,18.918,3.7a13.981,13.981,0,0,0-2.789,4.058H11.516A14.153,14.153,0,0,1,22.152,1.319" transform="translate(-2.073 -0.117)" fill="#5a5b5e"/>
      <path id="Path_231" data-name="Path 231" d="M32.83,5.616,33.442,3l-1.63,2.141L29.279,0l1.335,5.568-2.62-.61,2.141,1.629L25,9.12l5.569-1.336-.611,2.62,1.63-2.141L34.12,13.4,32.784,7.83l2.617.611-2.141-1.63L38.4,4.278Z" transform="translate(-5.811 0)" fill="#c4082a"/>
      <path id="Path_232" data-name="Path 232" d="M34.073,6.542l-.721.355a14.147,14.147,0,0,1,1.825,2.269H31.255l.995.761h3.385a14.048,14.048,0,0,1,1.784,6.5H32.2a18.644,18.644,0,0,0-1.155-6.11l-.9-.21a17.663,17.663,0,0,1,1.3,6.319H23.664V10.507l-.758.182v5.737H15.235a19.635,19.635,0,0,1,.32-3.254c-.285.113-.564.226-.83.337a20.856,20.856,0,0,0-.25,2.917H9.491A8.81,8.81,0,0,0,8.4,17.466,14.921,14.921,0,0,0,22.906,31.7v.01h.758V31.7A14.888,14.888,0,0,0,34.073,6.542M9.153,17.186h5.322a18.8,18.8,0,0,0,1.193,6.5h-4.73a14.03,14.03,0,0,1-1.785-6.5m2.242,7.264h4.588a14.678,14.678,0,0,0,2.808,4.2,13.862,13.862,0,0,0,2.683,2.174,14.152,14.152,0,0,1-10.079-6.378m11.512,6.3a13.47,13.47,0,0,1-6.083-6.3h6.083Zm0-7.061H16.486a17.8,17.8,0,0,1-1.251-6.5h7.672Zm.758-6.5h7.791a17.763,17.763,0,0,1-1.155,6.5H23.664Zm0,7.264h6.315a13.16,13.16,0,0,1-2.6,3.8,12.034,12.034,0,0,1-3.712,2.574Zm1.7,6.345a13.216,13.216,0,0,0,2.522-1.984,14.013,14.013,0,0,0,2.929-4.361h4.361A14.17,14.17,0,0,1,25.365,30.8m10.27-7.107H31.118a18.781,18.781,0,0,0,1.1-6.5h5.2a14.047,14.047,0,0,1-1.784,6.5" transform="translate(-1.952 -1.521)" fill="#5a5b5e"/>
    </g>
  </g>
</svg>
